<svg xmlns="http://www.w3.org/2000/svg" viewBox="0 0 220 300" fill="#fff"><title>album_logo</title><path d="M187.76,116l-10.67-.46c-5.51-.23-11-.48-16.53-.7-.76,0-1.19-.2-1.19-1.08s.55-.88,1.18-.91c8.66-.53,17.32-1.08,26-1.58,1-.06,1.36-.41,1.17-1.38a4.86,4.86,0,0,1,0-1.08c0-.8-.42-.88-1.08-.84-4.07.27-8.14.5-12.21.75-4.71.29-9.42.56-14.12.88-.8.06-1.07-.24-1.14-1-.23-2.93-.7-2.51,2.24-2.73,8.33-.63,16.66-1.29,25-1.9.88-.07.95-.43.83-1.15-.39-2.45-.37-2.47-2.8-2.19l-15.13,1.78a1.09,1.09,0,0,1-.86-.26,6.6,6.6,0,0,1,.86-.38c5.23-1.62,10.46-3.25,15.7-4.83.87-.26,1.33-.57,1-1.59a17.25,17.25,0,0,1-.41-2.46l-7.06,2.44q-9.57,3.33-19.13,6.69c-.85.3-1.18.12-1.39-.79a59.26,59.26,0,0,0-1.6-5.77c-.35-1-.16-1.46.81-1.92q11.75-5.62,23.43-11.35c.45-.22,1.14-.71,1.11-1a6.94,6.94,0,0,0-.86-2.32c-.06-.11-.79,0-1.15.2l-18.36,8.88-6.55,3.16a13.26,13.26,0,0,1-.91-2.09c-.06-.25.35-.74.66-.94q9.33-6,18.68-12c1.38-.88,2.79-1.73,4.12-2.69a1.45,1.45,0,0,0,.48-1.26,6.64,6.64,0,0,0-1.12-1.89c0-.07-.64.2-.93.38L154.63,84.15l-2.46,1.54c-.87-1.38-1.72-2.7-2.6-4.09L162,72.9c3.66-2.57,7.32-5.15,11-7.7.66-.46.72-.87.26-1.46-.2-.25-.37-.52-.55-.79-.57-.83-1.17-1.05-2.08-.35-4.3,3.33-8.63,6.61-13,9.91l-1.36,1-.26-.3c.52-.57,1-1.14,1.55-1.7,3.79-4.06,7.56-8.14,11.38-12.18.7-.73.24-1.19-.15-1.74-1.18-1.67-1.41-1.69-2.72-.19q-8.73,10-17.45,19.94c-.34.38-.71.74-1.12,1.17-1.33-1.43-2.56-2.83-3.87-4.16S141.2,72,139.9,70.87a1,1,0,0,1-.24-1.51q6.81-11.22,13.6-22.46c.29-.48.58-1,.86-1.44.82-1.43.47-2.41-1.14-2.91-.27-.08-.84.31-1,.62-1.83,3-3.62,5.94-5.42,8.92-3.07,5.1-6.16,10.19-9.2,15.31-.51.86-.89.94-1.65.33a15.52,15.52,0,0,0-2.13-1.33c-.6-.34-.73-.68-.37-1.35q6.57-11.77,13.08-23.59c.23-.42.48-.83.74-1.23a1,1,0,0,0-.2-1.46c-1.73-1.71-1.92-1.69-3,.49Q140,46.7,136.23,54.13a1,1,0,0,1-.64.51,3.25,3.25,0,0,1,.09-.77q2.73-8.31,5.51-16.62a1.62,1.62,0,0,0-.62-2.09c-.52-.35-1.08-.64-1.73-1a9.61,9.61,0,0,0-.47,1.08q-4.08,13.74-8.13,27.48c-.48,1.65-.42,1.52-2.07,1-3.49-1.12-7-2-10.55-3.1a7.48,7.48,0,0,1-1.53-.9c-.06,0-.09-.14-.15-.18-2.27-1.65-2.09-3.86-1.76-6.32,1.09-7.88,2-15.78,3-23.67a4.84,4.84,0,0,0,0-.54c-.13-.1-.18-.17-.25-.19-2.84-.51-2.85-.51-3.1,2.35q-.75,8.54-1.49,17.08a1,1,0,0,1-.47.76c0-.31-.14-.61-.16-.92-.36-6.11-.73-12.22-1-18.33,0-1.09-.39-1.47-1.47-1.41-1.84.11-1.88.07-1.73,1.88q1.1,12.73,2.23,25.46a2.29,2.29,0,0,1-.77,2.22c-.72.61-1.27,1.41-1.94,2.08a1.6,1.6,0,0,1-.85.37,45.61,45.61,0,0,0-11.94,3,2,2,0,0,1-.62.05C91,53.25,88.43,43.16,85.86,33a7.1,7.1,0,0,0-.74.15c-2.32.72-2.39.86-1.72,3.15q2.37,8.05,4.72,16.11a7.87,7.87,0,0,1,.17,1l-.39.13L79.68,35.93l-3.06,1.23c.3.62.51,1.09.74,1.54,4.2,8.37,8.38,16.73,12.61,25.08.47.92.45,1.39-.55,1.83s-1.88,1-3,1.64l-3.22-5.81Q77.8,51.57,72.35,41.69c-.43-.78-.78-1.35-1.8-.69-1.39.88-1.5,1-.86,2.18,4.49,8.12,9,16.25,13.49,24.35.61,1.1.57,1.62-.45,2.52-2.61,2.28-5,4.77-7.47,7.25-1.12,1.15-1,1.2-2.17.15q-7.86-7.2-15.75-14.39l-3.68-3.43c-.37-.35-.77-.67-1.23-1.06a12.76,12.76,0,0,0-1.61,1.87c-.14.26.14,1,.44,1.24,3.3,3.08,6.64,6.12,10,9.17s6.84,6.26,10.25,9.4c1,.9.9,1.24-.7,2.89-2-1.45-4.07-2.9-6.1-4.37q-8.3-6-16.56-12.07c-.84-.61-1.26-.55-1.73.37-.84,1.63-.83,1.76.62,2.81L68.84,85.72a4.24,4.24,0,0,1,.4.38L68,88.43l-6.85-3.85q-8.78-4.92-17.53-9.86c-.69-.39-1-.28-1.4.43-1,1.92-.94,2,1,3,4.06,2.24,8.07,4.56,12.1,6.84,3.48,2,7,3.93,10.47,5.85.71.39.78.78.57,1.53-1.15,4-2.25,8-3.33,12-.18.68-.47.76-1.1.66-8.18-1.29-16.35-2.55-24.53-3.83-.2,0-.39-.07-.59-.09-2.12-.31-2.09-.3-2.42,1.83-.13.84.12,1.13.94,1.25,7.43,1.12,14.86,2.28,22.28,3.43,1.15.17,2.29.37,3.44.54,1.48.21,1.51.25,1.13,1.92a8.48,8.48,0,0,0-1.36-.66,41.49,41.49,0,0,0-4.13-1,22.83,22.83,0,0,0-2.75,0,4.22,4.22,0,0,0-3.62,1.53,2.31,2.31,0,0,1-2.09.88c-3.36-.13-6.71-.23-10.07-.28a1.68,1.68,0,0,1-1.59-1c-1.32-2.36-2.69-4.71-4-7.05a1.4,1.4,0,0,0-.46-.55c-1.36-.73-1.27-1.86-1.07-3.16A91.89,91.89,0,0,1,49.47,55.6C61,41,75.46,30.79,93.71,26.59c22.67-5.21,43.56-.75,62.22,13.05,17.94,13.27,28.79,31.29,33.67,53a97.59,97.59,0,0,1,.72,38.71c-.07.4-.17.78-.21,1a38.55,38.55,0,0,0-5.44,1,19.84,19.84,0,0,0-5.58,2.68,23.18,23.18,0,0,0-4.14,4.62,1.22,1.22,0,0,1-1.78.45c-4.71-2.2-9.43-4.37-14.13-6.57-.89-.41-2.16-.69-2.5-1.39s.43-1.78.64-2.71c.48-2.06,1-4.12,1.35-6.2.17-.88.48-1.09,1.36-1,8.54,1.3,17.08,2.56,25.62,3.84,1.44.21,1.44.22,1.52-1.28a4.35,4.35,0,0,1,0-.72c.17-.81-.14-1.13-1-1.24-4.47-.63-8.94-1.32-13.4-2q-6.16-.93-12.34-1.84c-.66-.1-1.26-.13-1.18-1.1s.65-.84,1.27-.81l21.81.92c1.44.06,2.88.09,4.31.2.82.06,1.21-.22,1.19-1S187.76,116.83,187.76,116Z"/><path d="M27.93,98.65c-3.74-2-7.72-1.38-11.83-1.44.08-.67.13-1.43.27-2.18a113,113,0,0,1,14-37.67A103,103,0,0,1,46.55,36.58,94.63,94.63,0,0,1,85.48,13a83.54,83.54,0,0,1,19.94-3.71,113.15,113.15,0,0,1,20.82.46A90.42,90.42,0,0,1,159,20.54a96.8,96.8,0,0,1,22.12,17,106.21,106.21,0,0,1,23.14,35.8,110.57,110.57,0,0,1,7.47,32,138,138,0,0,1-.8,30.6c-.34,2.35-.83,4.69-1.3,7.31a86.8,86.8,0,0,0-16.53-10.32c.29-2,.67-4,.89-6.07,3.59-33.42-5.72-62.26-30.85-85.2a75.33,75.33,0,0,0-41.43-19.32c-22.4-3-42.52,2.77-60.14,16.8C44.54,52.71,34.19,70.58,29.31,91.73,28.79,94,28.4,96.25,27.93,98.65Z"/><path d="M159.53,221.73a18.62,18.62,0,0,1-4.59-.53c-2.09-.77-4.61-.71-6.17-2.55a15.85,15.85,0,0,1-2.61-4.24c-1.83-4.47-3.49-9-5.18-13.52-.2-.54-.1-1.18-.25-1.74q-2.21-8.13-4.46-16.24c-.74-2.69-1.42-5.41-2.3-8.06-1-3.1-2.09-6.21-3.41-9.19-1.73-3.94-3.56-7.85-5.64-11.61a79.7,79.7,0,0,0-11.41-15,29.06,29.06,0,0,1-5.44-9,5.81,5.81,0,0,1-.09-2.25c0-.72.22-1.44.17-2.15-.25-3.57,2.28-5.07,4.83-6.54a2,2,0,0,1,2.14.06,10.92,10.92,0,0,0,2.62.8,23.74,23.74,0,0,1,10.51,5.7c1.71,1.55,3.75,2.77,5.35,4.42,3.24,3.35,6.38,6.81,9.38,10.38,1.86,2.22,3.29,4.81,5.05,7.11a52.21,52.21,0,0,1,7.72,15.32c1.94,5.7,3.86,11.42,6.05,17A61.3,61.3,0,0,0,170,193.86c1.89,2.56,3.55,5.31,5.21,8a3.75,3.75,0,0,1,.35,3.3c-.55,1.45-1.18,2.86-1.75,4.3a20.61,20.61,0,0,0-1.17,3.24,9.34,9.34,0,0,1-4.65,6,16.06,16.06,0,0,1-7.53,2.83l-.95.06Z"/><path d="M87.25,136.56c.4,3.33.78,6.65,1.21,10s1.06,6.63,1.33,10a32.59,32.59,0,0,0,1.78,8.33A40,40,0,0,1,92.84,171c.67,3.57,1,7.23,2,10.69a108.29,108.29,0,0,0,4.61,12c1.19,2.78,2.69,5.43,4.08,8.13,2.43,4.73,4.74,9.51,7.36,14.13,2,3.53,4.4,6.85,6.62,10.26A4,4,0,0,1,118,230a3.58,3.58,0,0,1-3.73,2.24c-2.75-.1-5.52.17-8.25-.06a23.34,23.34,0,0,1-4.74-1.47c-2.2-.68-4.43-1.29-6.6-2.06a7.86,7.86,0,0,1-3-1.62c-4-3.94-7.87-7.91-11.64-12-2.31-2.52-3.23-5.83-4.35-9-1-2.75-2.06-5.46-3-8.23-.57-1.75-.66-3.7-1.41-5.36-2-4.41-2.6-9.06-2.87-13.82q-.33-6-.85-12c-.27-3.22-.72-6.42-1-9.64a71.09,71.09,0,0,1,.23-15.77c.38-2.67.39-5.41,1-8s.62-5.43,2.75-7.6,6.58-2.63,8.68-1.34,4.39,2.3,6.54,3.54a2.67,2.67,0,0,1,1.14,1.51,19.43,19.43,0,0,1,.59,3.65c.09,1.23,0,2.48,0,3.72Z"/><path d="M104.65,80.75h3.67v2.36q.08,9,.14,18.09c0,1.44,0,2.88,0,4.32a1.28,1.28,0,0,1-.36.81,4.66,4.66,0,0,0,1.7,7.45c-1.46,1.18-2.9,2.41-4.4,3.56a7.75,7.75,0,0,0-2.85,5.34,25.1,25.1,0,0,0-.43,5.25,15.9,15.9,0,0,0,1,5.23,43,43,0,0,0,8.29,12.38A58.91,58.91,0,0,1,122,161.4c.06.14.09.3.16.53a3.38,3.38,0,0,1-.7.37,39.54,39.54,0,0,1-24-1.08,1.71,1.71,0,0,1-1-1c-.66-3.82-1.25-7.65-1.84-11.47-.22-1.42-.45-2.85-.54-4.28-.27-3.9-.4-7.81-.71-11.71a39,39,0,0,0-.91-5.78,6.48,6.48,0,0,0-3.7-4.45c-2.18-1.08-4.36-2.19-6.45-3.44a10.79,10.79,0,0,0-6.65-1.57c-1.65.14-3.29.34-5.09.54a1,1,0,0,1-.14-.46,5,5,0,0,0-2.87-4.14,1.76,1.76,0,0,1-1-1.85,52.67,52.67,0,0,1,7.36-25c5.93-10,14.27-17,25.41-20.56a33.25,33.25,0,0,1,9.45-1.67c0,2.25,0,4.39,0,6.53,0,.92-.17,1.84-.12,2.75a5.48,5.48,0,0,1-1.86,4.34A32.42,32.42,0,0,0,104.65,80.75Z"/><path d="M30.15,191.63c.15-4.71.27-9.42.47-14.13.13-3.06.27-6.13.59-9.18.21-2.06.8-4.07,1.15-6.12.49-2.91.79-5.87,1.41-8.75.86-4,1.9-8,2.94-11.93.75-2.85,1.6-5.68,2.48-8.49a9,9,0,0,1,.93-2q2.34-3.81,4.81-7.52a13.13,13.13,0,0,1,1.59-1.9c2.19-2.1,4.43-4.14,6.66-6.21a4.21,4.21,0,0,1,5-.54,58,58,0,0,1,5.89,3.64,1.07,1.07,0,0,1,.44.76,10.6,10.6,0,0,1-.73,5.15A56.36,56.36,0,0,0,60,133.15a108,108,0,0,0-2.08,11.24c-.25,1.47-.45,3-.6,4.43-.72,7.25-1.67,14.47-1.67,21.79,0,3.45-.55,6.9-.71,10.36a53.48,53.48,0,0,0,1.81,15.41c1.08,4.33,2,8.7,3.33,13,.66,2.2,1.3,4.55,3.29,6.1a1.35,1.35,0,0,1,.47.66A5.46,5.46,0,0,1,61.28,222a7.77,7.77,0,0,1-3.24.5,50.31,50.31,0,0,1-9.2-1.35c-5.68-1-9.23-4.66-12.23-9.36a53.58,53.58,0,0,0-3.92-5.23c-1.5-1.79-2.55-3.47-2.37-5.89.23-3,.06-6,.06-9Z"/><path d="M112.53,205.85A78.92,78.92,0,0,0,135.05,202c.87,2.45,1.75,4.8,2.53,7.18a52.47,52.47,0,0,0,6.84,13.93,8.41,8.41,0,0,1,1.2,2.82,54.59,54.59,0,0,1,1.79,8.47c.3,3.68,0,7.4,0,11.1,0,2.08,0,4.16.05,6.23.07,2.39.1,4.8.35,7.18.38,3.62,2,6.87,3.64,10a16.34,16.34,0,0,1,1.1,14.15,11,11,0,0,1-2.54,4.52,24.06,24.06,0,0,1-2.61,2c-2.06,1.41-4.43,1.11-6.76,1.35-4.84.49-8.89-1.41-12.86-3.7-1.72-1-3.37-2.09-5-3.23s-2.3-2.78-3.07-4.47c-2.28-5-1.64-10.21-1.28-15.39s2.71-9.69,5-14.21c1.22-2.41,2.66-4.78,2.27-7.66s-.86-6-1.25-9a22,22,0,0,1-.23-3.44,10.9,10.9,0,0,0-1.8-6.67c-1.24-1.79-2.44-3.62-3.54-5.5-2-3.53-4-7.1-6-10.66A9.34,9.34,0,0,1,112.53,205.85Z"/><path d="M118.24,80.31c-1.11-1.25-2-2.18-2.83-3.22a3.18,3.18,0,0,1-.65-1.69c-.13-3-.19-6.06-.23-9.09a15.2,15.2,0,0,1,.28-2c1.77.3,3.54.49,5.26.9,13.57,3.26,23.24,11.51,29.64,23.67,6.23,11.87,7.64,24.45,4.73,37.5a44.15,44.15,0,0,1-4.9,12.84c-.77-1-1.42-1.92-2.17-2.76-3.1-3.49-6.08-7.1-9.4-10.37a94.64,94.64,0,0,0-8.62-7.06,26.81,26.81,0,0,0-8.53-4.27c-1.17-.37-2.26-1-3.42-1.36a26.89,26.89,0,0,0-2.86-.64c.24-.29.43-.53.63-.76,1.14-1.38,1.38-2.74.35-4.18a6.59,6.59,0,0,1-1-4.07c0-5.64,0-11.27,0-16.91,0-1.84.13-3.67.15-5.51,0-.75.42-.83,1-.85C116.39,80.42,117.14,80.37,118.24,80.31Z"/><path d="M181.27,164.19c3.7,2.63,7.34,5.23,11,7.8,1.54,1.08,3.15,2,4.64,3.19.94.73,1.63,1.76,2.55,2.51,2.42,2,2.26,4.81,2.42,7.46a92.3,92.3,0,0,1,.11,9.7,22.08,22.08,0,0,1-1,5.38c-1.19,3.84-2.47,7.65-3.87,11.42-.71,1.9-1.76,3.67-2.66,5.5a59.7,59.7,0,0,0-5.58,21.62c-.48,5.85,1.5,11,4.58,15.8a15.66,15.66,0,0,1,2.52,8.69c0,2.93-1.55,4.8-3.94,6-1.55.8-3.27,1.26-4.89,1.92-3.25,1.33-5.92-.05-8.46-1.84s-3.47-4.52-3.91-7.61c-.64-4.51-.37-9-.25-13.51a9.34,9.34,0,0,1,1.2-4.18,86.22,86.22,0,0,0,7.16-16.57,38.51,38.51,0,0,0,2.06-7.59,17.31,17.31,0,0,0-1.13-7.63c-.89-2.52-2-5-2.79-7.51a26.75,26.75,0,0,0-2.85-5.62c-3.08-5.27-6.11-10.57-9.15-15.87a4.86,4.86,0,0,1-.61-1.43,1.5,1.5,0,0,1,.21-1.15,93.6,93.6,0,0,0,12.49-16.35A1.25,1.25,0,0,1,181.27,164.19Z"/><path d="M23.85,192.48a39.11,39.11,0,0,1-3.77-3.1,55.16,55.16,0,0,1-10.26-15.9c-1-2.24-2-4.46-2-6.95-.06-3.1,0-6.2,0-9.31,0-3.7,0-7.41.21-11.1.33-6.06,1-12.06,3.06-17.84a36.46,36.46,0,0,0,1.2-6.21c.58-3.53,1-7.09,1.73-10.59a57.06,57.06,0,0,1,2.07-6.83,2.27,2.27,0,0,1,2.66-1.56,9.47,9.47,0,0,0,1.92,0c4.07-.37,6.58,1.84,8.44,5.11.73,1.28,1.48,2.54,2.13,3.86a46.3,46.3,0,0,1,2.45,5.43,8.48,8.48,0,0,1-.3,6.71,6.57,6.57,0,0,0-.2,2.64,16.18,16.18,0,0,1,.11,3.39c-.66,3.07-1.58,6.08-2.31,9.13-1.78,7.53-3.33,15.1-4.71,22.72A156.54,156.54,0,0,0,24,190.93C24,191.31,23.91,191.7,23.85,192.48Z"/><path d="M61.12,188.08a7.4,7.4,0,0,1,3.63,4.17c2.13,6.69,4.38,13.35,6.82,19.94a23.14,23.14,0,0,0,3.58,6.2c2.62,3.27,5.63,6.22,8.29,9.45a9,9,0,0,1,1.66,3.87,41.16,41.16,0,0,1,.76,6.73A148.6,148.6,0,0,1,86,254.23,28.71,28.71,0,0,1,83.43,265c-1.55,3.12-3.35,6.12-5,9.17a.85.85,0,0,1-.14.19,17,17,0,0,1-6,3.12,2.17,2.17,0,0,0-.36,0c-3.51.78-6.18-1.26-9-2.68-2.45-1.21-3.74-3.48-5.22-5.57a3.05,3.05,0,0,1-.51-1.57c-.25-4.05-.11-8.05,1.55-11.87.8-1.82,1.25-3.8,2.12-5.58,1.9-3.89,4-7.71,6-11.54.86-1.6,1.87-3.13,2.69-4.76a5.43,5.43,0,0,0,.52-2.32c0-2.94.21-5.91-.62-8.8a2.41,2.41,0,0,1,0-1.07c.49-2.76-.27-5.24-1.36-7.75-.93-2.15-1.37-4.51-2.22-6.7-2.07-5.33-2.83-11-4.09-16.5C61.49,189.92,61.34,189.1,61.12,188.08Z"/><path d="M20.16,198.56c.47.92.89,1.81,1.37,2.66,1.89,3.32,3.66,6.72,6.2,9.64a3.21,3.21,0,0,1,.61,2.09,39.25,39.25,0,0,0,1.24,10.94c.53,2.17.59,4.49,1.34,6.58,1.07,2.94,2.59,5.72,3.87,8.58a7.88,7.88,0,0,1,.87,4.68c-.32,1.91-.18,3.89-.33,5.83a5,5,0,0,1-2.79,4.35,9.74,9.74,0,0,1-7.82.86,12.74,12.74,0,0,1-6.56-4,11.76,11.76,0,0,1-2.59-7.09c-.07-2.17-.56-4.33-.57-6.49a20.84,20.84,0,0,1,.69-5.5c.91-3.33,2.17-6.55,3.1-9.88a29.6,29.6,0,0,0,1.31-6.81c.19-4.87.06-9.75.06-14.62Z"/><path d="M203.8,173.35c-1.81-2.64-4.56-3.73-6.87-5.4-3.82-2.75-7.69-5.44-11.51-8.19a10.21,10.21,0,0,1-1.17-1.47,29.56,29.56,0,0,1-2.42-2.59,14.23,14.23,0,0,1-2.75-9.08,6,6,0,0,1,3.29-5.11c1-.52,1.71-1.41,2.65-2,1.62-1,3.39-.91,5.26-.79,2.49.17,4.36,1.49,6.29,2.69a102.45,102.45,0,0,1,8.48,5.81,12.12,12.12,0,0,1,4.82,6.73,13.14,13.14,0,0,1-.33,7.07,89.33,89.33,0,0,1-3.52,9A23.19,23.19,0,0,1,203.8,173.35Z"/><path d="M110.82,168.47A9.3,9.3,0,0,0,111,170c1,3.86,2,7.74,3.18,11.56a15.18,15.18,0,0,1,.41,6.14c-.39,3.78-.73,7.56-1.08,11.34,0,.31,0,.63,0,1.14a10.7,10.7,0,0,0,2.27-.23c.29-.09.57-.7.59-1.1.15-2.27.22-4.55.33-6.82,0-.38.07-.76.1-1.13l.35-.06c.13.45.28.89.38,1.35.5,2.18,1,4.37,1.5,6.54a1.27,1.27,0,0,0,.92.69,15,15,0,0,0,2.27-.21c-.15-.7-.26-1.31-.42-1.91-1.06-4.1-2.27-8.18-3.13-12.32a19.54,19.54,0,0,1,.08-5.34c.26-3.63.64-7.24.9-10.87.06-.92.36-1.41,1.3-1.5a8.57,8.57,0,0,0,1.39-.35c2.06-.58,2.22-.65,3,1.39,1.55,4.15,3,8.34,4.29,12.58,1.67,5.58,3.11,11.23,4.65,16.85.1.38.17.77.3,1.39-2.8.73-5.5,1.52-8.25,2.12a71.6,71.6,0,0,1-14.15,1.6,1.84,1.84,0,0,1-1.84-1,12.6,12.6,0,0,1-2.14-7.88c.6-7.93.87-15.88,1.26-23.82C109.49,168.47,109.47,168.47,110.82,168.47Z"/><path d="M166.75,178.08a132.09,132.09,0,0,0-10.63-29.2,5.42,5.42,0,0,1,.77.12c1.5.55,3,1.22,4.49,1.66,2.52.73,4.11,2.66,5.86,4.37,2.26,2.2,4.47,4.45,6.7,6.67.19.19.42.34.69.57.37-.57.67-1.08,1-1.56a1.19,1.19,0,0,0-.25-1.85c-1.62-1.36-3.18-2.79-4.76-4.2-.25-.22-.46-.48-.69-.72l.15-.28c.35.1.7.18,1,.31,2.3.88,4.37,2,5.41,4.45.42,1,1.42,1.72,2.05,2.64a1.54,1.54,0,0,1,.15,1.31,84.51,84.51,0,0,1-11.39,15.22A5.56,5.56,0,0,1,166.75,178.08Z"/><path d="M98.1,166.79c2.73.49,5.28.92,7.81,1.45.26,0,.56.71.55,1.07-.1,3-.27,5.91-.42,8.86q-.33,6.35-.65,12.7c0,.23,0,.46-.1,1C100.76,183.92,99.63,175.34,98.1,166.79Z"/><path d="M107,79.71l4.42-6c1.39,1.89,2.82,3.81,4.27,5.77l-2.68.47c-.1,2.46-.29,4.91-.3,7.37,0,5.8,0,11.6,0,17.39,0,.78-.22,1.13-1.05,1a10.81,10.81,0,0,0-1.65,0c0-2,0-3.94,0-5.89,0-3.87-.13-7.75-.17-11.63,0-2.23,0-4.46,0-6.7,0-1.41-.21-1.62-1.67-1.61C107.89,79.83,107.51,79.76,107,79.71Z"/><path d="M173.8,151.69c-2.75-1.11-5.26-2-7.6-3.13a12.76,12.76,0,0,1-2.79-2.58c-2.78-2.7-5.56-5.4-8.31-8.14-.19-.19-.22-.89-.08-1a1.34,1.34,0,0,1,1.1-.14c2.92,1.3,5.82,2.66,8.72,4,2.36,1.08,4.71,2.2,7.09,3.24a1.53,1.53,0,0,1,1.12,1.77,24,24,0,0,0,.38,4C173.49,150.31,173.63,150.84,173.8,151.69Z"/><path d="M114.27,59.81c-1.54-.1-1.2.71-1.11,1.7.2,2.1.14,4.23.17,6.35a35.64,35.64,0,0,1-.28,5.56l-1.6-2.22-1.18,1.62-.24-.08c.06-1.12.15-2.23.17-3.35,0-2.79.11-5.58,0-8.37,0-.47-.6-.93-.92-1.39l-.35.15c.15-.18.28-.37.44-.54C112.4,56.13,111.86,56.83,114.27,59.81Z"/><path d="M114.08,109.8a2.78,2.78,0,0,1-2.84,2.5c-1.3,0-2.4-1.39-2.44-3.07,0-1.24.78-2,2.19-2C113,107.26,114.06,108.15,114.08,109.8Z"/><path d="M38.89,114h6.73l-5.5,4.81Z"/><path d="M115.93,177.85c-.21-1-.41-2-.65-3-.43-1.79-.83-3.58-1.34-5.34-.29-1,0-1.32,1-1.3.55,0,1.1-.09,1.88-.16-.15,3.3-.3,6.51-.44,9.73Z"/><path d="M159.67,146.84l-3.11-1.3c-.92-.38-1.84-.76-2.76-1.16-1.64-.72-1.88-1.44-1-3,.17-.31.31-.63.56-1.11,2.25,2.09,4.43,4.1,6.6,6.1Z"/><path d="M63,185.47A3.23,3.23,0,0,1,61,182c.24-3.28.24-6.58.35-9.88h.43C62.16,176.51,62.58,181,63,185.47Z"/></svg>