<svg xmlns="http://www.w3.org/2000/svg" viewBox="0 0 320 140" fill="#fff"><title>icm_logo</title><path d="M211.2,11.76c2.31,1,3.08,3.21,4.23,5.12s2.31,4,3.4,6a8.9,8.9,0,0,1,.57,7.7c-1.79,4.67-3.54,9.35-5.32,14a72.68,72.68,0,0,0-2.46,7q4-3.91,8-7.84t7.81-7.58c2.06-2,4.07-4.06,6.22-5.95,3.47-3,6.94-6.09,10.59-8.9A69.16,69.16,0,0,1,252.54,16c3.7-2.09,7.32-1.33,10.6,1.08,3,2.23,4,5.3,3.54,9a29.27,29.27,0,0,1-3.5,10.51c-2.92,5.5-6.13,10.85-9.36,16.17-2.31,3.81-4.86,7.48-7.3,11.22,0,.05,0,.15,0,.32,1.91-1.63,3.78-3.22,5.63-4.84q4.88-4.24,9.72-8.52c1.73-1.53,3.4-3.11,5.12-4.62,3.06-2.69,6.14-5.35,9.21-8,2-1.74,4-3.51,6-5.24,2.36-2,4.76-4,7.16-6,2.79-2.31,5.58-4.63,8.39-6.92a42.78,42.78,0,0,1,4.74-3.69c2.34-1.42,3.63-1.15,5.77.61a21.69,21.69,0,0,1,6.33,9.07,4.11,4.11,0,0,1-.27,3.75,66.22,66.22,0,0,1-3.9,5.86c-2.73,3.51-5.59,6.92-8.41,10.36-2.3,2.8-4.63,5.58-6.93,8.38-2.5,3-5.06,6-7.45,9.16-3.22,4.2-6.45,8.41-9.4,12.8a42.54,42.54,0,0,0-6.7,15.17,16.27,16.27,0,0,0,0,6.22c.81,4.06,3.45,5.55,7.35,3.82a55.76,55.76,0,0,0,12.49-7.91q4.72-3.82,9.4-7.73c1-.83,1.95-1.74,2.9-2.64l5.53-5.29c.13-.12.3-.2.7-.48.06,2.31.5,4.48.05,6.45-.37,1.61-1.68,3.08-2.8,4.42a52.07,52.07,0,0,1-5.65,6.12c-4.23,3.71-8.57,7.32-13,10.76a70.21,70.21,0,0,1-13.81,8.45,48,48,0,0,1-7.69,2.77c-5.23,1.34-11.06-2-13-7.06a27.24,27.24,0,0,1-1.65-12,38.39,38.39,0,0,1,3.35-12.4,89.94,89.94,0,0,1,9.09-15.89c3.23-4.58,6.62-9,10-13.54,1.52-2,3.12-4,4.54-6.16-1.66,1.39-3.31,2.77-5,4.17q-3.81,3.2-7.6,6.41c-1.29,1.1-2.6,2.19-3.84,3.35-4.63,4.36-9.36,8.64-13.83,13.17-3.55,3.6-6.83,7.48-10.16,11.31-3,3.45-5.91,7-8.83,10.5-2.41,2.91-4.67,5.94-7.17,8.77a25,25,0,0,1-7.31,6.18,4.59,4.59,0,0,1-5.29-1c-2.12-2.37-3-5.28-3.6-8.29a29.88,29.88,0,0,1-.48-3.38,11.21,11.21,0,0,1,2.36-7.61c2.81-3.92,5.77-7.74,8.66-11.6,3.77-5,7.58-10,11.29-15.07,2.6-3.54,5.19-7.09,7.56-10.78,2.57-4,4.89-8.2,7.29-12.34A28.25,28.25,0,0,0,245,39.93a7.08,7.08,0,0,0,.52-2.26c.07-1.31-.77-1.91-1.9-1.25a16.69,16.69,0,0,0-3.33,2.6c-1.38,1.36-2.58,2.9-3.9,4.32-2.63,2.82-5.3,5.6-7.93,8.42q-4.59,4.92-9.15,9.87c-3,3.29-6.08,6.61-9.16,9.87a128.14,128.14,0,0,0-9.74,12.29c-3.85,5.21-7.75,10.38-11.62,15.56-2.05,2.74-4.05,5.5-6.15,8.19a12.08,12.08,0,0,1-4.76,4c-3.21,1.31-5.66.57-7.94-2.61-2.57-3.59-3.73-7.81-5-12-.15-.47.48-1.27.9-1.8q5.94-7.56,11.93-15.08c4.2-5.25,8.38-10.53,12.63-15.73a66.25,66.25,0,0,0,7.7-12.21,109.77,109.77,0,0,0,6.63-14.77,30,30,0,0,0,.93-3.62c.41-2.12-1-3.31-3-2.56a38.32,38.32,0,0,0-3.64,1.65c-8.75,4.27-17.52,8.5-26.22,12.87-3.75,1.87-7.33,4.07-11,6.08A9.84,9.84,0,0,1,155.65,53c-2.81-.39-3.59-2.5-3.17-5.11.61-3.78,1.38-7.54,2.08-11.31.56-3,1.25-6,4-8,2.47-1.81,4.92-3.64,7.39-5.44,1.59-1.15,3.2-2.27,4.8-3.39a5.24,5.24,0,0,1,1.13-.63,2,2,0,0,1,2.38.51,1.62,1.62,0,0,1-.35,2.23c-2.12,2.25-4.27,4.49-6.33,6.65.93-.41,2-.87,3.09-1.36,6-2.72,11.85-5.56,17.85-8.14,5.2-2.24,10.52-4.21,15.79-6.27,1-.39,2.05-.64,3.08-1Z"/><path d="M5.52,92.4c.51-2,.91-4,1.55-5.94a41.42,41.42,0,0,1,7.31-12.93,42.05,42.05,0,0,1,9.46-8.7C26.63,63,29.62,61.72,33,62.2a7.94,7.94,0,0,1,3.43,1.34c1.64,1.19,1.65,2.95.62,5.53A25.84,25.84,0,0,1,31.84,77c-2,2.18-4.05,4.41-6.24,6.43S21,87.26,18.72,89.19a2.19,2.19,0,0,0-.8,1c-.73,4.15.45,7.36,5.59,8s9.11-1.74,13-4.5c3-2.16,5.92-4.52,9.1-7l1,4c1.23-3.06,2.36-6.35,3.86-9.47A84.06,84.06,0,0,1,56,71.22c2.89-4.38,6.09-8.56,9.29-12.73,1.46-1.92,3.21-3.62,4.86-5.39s3.25-3.62,5-5.25c3.52-3.18,7.13-6.25,10.73-9.33A164.35,164.35,0,0,1,104.47,25c6.75-4.31,13.68-8.28,21.4-10.62A55,55,0,0,1,133.34,13a15.23,15.23,0,0,1,8.15,1.12,11.34,11.34,0,0,1,6.83,8c1.48,5.27.32,10.24-1.78,15.09A66.65,66.65,0,0,1,135.3,54.6c-3.9,4.45-7.93,8.83-12.22,12.9A82.86,82.86,0,0,1,107,79.56a30.43,30.43,0,0,1-10.54,4.16c-4,.59-7.46-1.43-8.17-5.62-.43-2.54.5-4.62,1.7-6.64,1.81-3,4.5-5.27,7.19-7.49,1.59-1.31,3.07-2.75,4.62-4.1q4.47-3.9,9-7.76a3.8,3.8,0,0,1,1-.56,1.62,1.62,0,0,1,2.47,1.58v1.59c1-.86,2-1.7,3-2.63,2.32-2.26,4.68-4.48,6.86-6.88,4.37-4.8,8.56-9.76,11.39-15.69a13.44,13.44,0,0,0,1.06-3.21c.4-2-1.53-3.48-3.86-3a43.18,43.18,0,0,0-16,6.84c-4.17,2.87-8.21,5.94-12.08,9.2S97.24,45.91,93.8,49.43,87,57,83.55,60.81A77.45,77.45,0,0,0,72.72,76.74a57.26,57.26,0,0,0-6.18,17.37c-.72,4.4-.69,8.86,1.21,13A11.8,11.8,0,0,0,76.88,114a24,24,0,0,0,12.84-1.21,130.35,130.35,0,0,0,12.26-5,132.93,132.93,0,0,0,18.8-11.34c5.21-3.7,10.27-7.61,15.36-11.49,2.21-1.69,4.3-3.53,6.59-5.42.27,3.65-.08,7.08-2.55,9.72-3.33,3.57-6.83,7-10.47,10.25a157,157,0,0,1-20.11,15.37A100.32,100.32,0,0,1,86,126.33a44.73,44.73,0,0,1-17.61,2.26A25.41,25.41,0,0,1,53,122.28a22.2,22.2,0,0,1-7.36-13.67,60,60,0,0,1-.47-8.89A48.75,48.75,0,0,1,46,93.6L42.78,97c-1.34,1.41-2.58,2.94-4,4.22-2.49,2.18-5,4.31-7.7,6.25a28.74,28.74,0,0,1-10.91,5,10.85,10.85,0,0,1-11-4.34,19.41,19.41,0,0,1-3.36-8.8c0-.08-.14-.16-.21-.24Z"/><path d="M50.16,47.27c.22,4.87-4.39,11.41-10.17,12.21a5.62,5.62,0,0,1-6.66-5.56c-.18-4.43,2.27-7.2,5.63-9.44a11.35,11.35,0,0,1,6.39-2C48.47,42.49,50.16,44.17,50.16,47.27Z"/></svg>