<svg xmlns="http://www.w3.org/2000/svg" xmlns:xlink="http://www.w3.org/1999/xlink" viewBox="0 0 70 70"><defs><style>.a{fill:#fff;fill-rule:evenodd;}.b{fill:none;}.c{filter:url(#a);}</style><filter id="a" x="0" y="0" width="70" height="70" filterUnits="userSpaceOnUse"><feOffset input="SourceAlpha"/><feGaussianBlur stdDeviation="3" result="b"/><feFlood flood-color="#61eddc" flood-opacity="0.455"/><feComposite operator="in" in2="b"/><feComposite in="SourceGraphic"/></filter></defs><g transform="translate(-1829 -505)"><path class="a" d="M45.917,22.278A14.454,14.454,0,0,0,60.5,7.694V7A11.29,11.29,0,0,0,63,4.361a11.53,11.53,0,0,1-2.917.833,5.4,5.4,0,0,0,2.222-2.778,12.739,12.739,0,0,1-3.194,1.25A4.96,4.96,0,0,0,55.361,2a5.218,5.218,0,0,0-5.139,5.139,2.708,2.708,0,0,0,.139,1.111A14.36,14.36,0,0,1,39.806,2.833a5.319,5.319,0,0,0-.694,2.639,5.518,5.518,0,0,0,2.222,4.306,4.682,4.682,0,0,1-2.361-.694h0a5.076,5.076,0,0,0,4.167,5,4.282,4.282,0,0,1-1.389.139,2.364,2.364,0,0,1-.972-.139,5.262,5.262,0,0,0,4.861,3.611,10.486,10.486,0,0,1-6.389,2.222A3.845,3.845,0,0,1,38,19.778a13.109,13.109,0,0,0,7.917,2.5" transform="translate(1814 528)"/><g class="c" transform="matrix(1, 0, 0, 1, 1829, 505)"><rect class="b" width="52" height="52" transform="translate(9 9)"/></g></g></svg>